<?xml version="1.0" encoding="UTF-8"?>
<svg id="Camada_2" data-name="Camada 2" xmlns="http://www.w3.org/2000/svg" viewBox="0 0 1009.13 449.8">
  <defs>
    <style>
      .cls-1 {
        fill: #fff;
      }

      .cls-2 {
        fill: none;
      }

      .cls-3 {
        fill: #ffec00;
      }
    </style>
  </defs>
  <g id="Camada_1-2" data-name="Camada 1">
    <g>
      <g>
        <path class="cls-2" d="M963.5,107c14.91-.57,22.36-.86,37.27-1.65,4.62-.24,8.36,3.58,8.36,8.56v20.63c0,4.98-3.74,10.35-8.36,10.42-41.8.08-62.72.08-104.51,0-4.62.07-8.28-3.53-8.26-8.04.05-8.78.08-13.18.12-21.96.01-2.07.8-4.09,2.18-5.67,17.16-19.59,26.93-29.98,44.94-50.86,5.01-5.8,1.22-14.42-6.09-13.78-13.12,1.14-19.68,1.73-32.8,3.25-4.62.53-7.83-2.75-7.8-7.25.04-7.45.06-11.18.11-18.63.03-4.5,3.11-8.64,7.73-9.34,40.71-6.19,61-6.36,101.65-12.57,4.62-.7,8.35,2.69,8.35,7.66v21.9c0,2.27-.8,4.57-2.24,6.42-18.7,23.95-28.05,34.97-46.77,56.64-4.98,5.76-1.19,14.57,6.12,14.28Z"/>
        <path class="cls-2" d="M75.5,411.79c14.91-.57,22.36-.86,37.27-1.65,4.62-.24,8.36,3.58,8.36,8.56v20.63c0,4.98-3.74,10.35-8.36,10.42-41.8.08-62.72.08-104.51,0C3.63,449.81-.03,446.2,0,441.7c.05-8.78.08-13.18.12-21.96.01-2.07.8-4.09,2.18-5.67,17.16-19.59,26.93-29.98,44.94-50.86,5.01-5.8,1.22-14.42-6.09-13.78-13.12,1.14-19.68,1.73-32.8,3.25-4.62.53-7.83-2.75-7.8-7.25.04-7.45.06-11.18.11-18.63.03-4.5,3.11-8.64,7.73-9.34,40.71-6.19,61-6.36,101.65-12.57,4.62-.7,8.35,2.69,8.35,7.66v21.9c0,2.27-.8,4.57-2.24,6.42-18.7,23.95-28.05,34.97-46.77,56.64-4.98,5.76-1.19,14.57,6.12,14.28Z"/>
      </g>
      <g>
        <g>
          <path class="cls-3" d="M355.68,130.25l-94.14-54.35c-12.96-7.48-28.93-7.48-41.9,0l-94.13,54.35c-12.96,7.48-20.95,21.32-20.95,36.28v116.73c0,14.97,7.98,28.8,20.95,36.28l94.13,54.35c12.96,7.48,28.94,7.48,41.9,0l94.14-54.35c12.96-7.48,20.95-21.32,20.95-36.28v-116.73c0-14.97-7.98-28.8-20.95-36.28ZM184.22,165.61c8.05-5.21,16.14-10.37,24.25-15.51-1.41-1.43-3.61-3.55-5.35-4.8-2.79-2.01-13.87-7.44-13.87-7.44,0,0-2.37-12.49,10.88-10.75,9.45,1.24,18.58,9.23,23.04,13.71,1.03-.65,2.06-1.3,3.09-1.95,1.33-.84,2.68-1.54,4.04-2.12,6.1-2.57,12.5-2.47,19.16.35,2.67,1.13,5.36,2.25,8.03,3.37,4.87-4.11,14.82-11.42,24.4-11.93,13.37-.71,9.76,11.55,9.76,11.55,0,0-11.58,4.56-14.57,6.34-.64.38-1.35.87-2.07,1.4,6.88,2.88,13.76,5.76,20.62,8.67,9.05,3.85,9.93,12.11,1.75,17.39-16.62,10.72-33.4,21.23-50.03,31.93-.53.34-1.03.61-1.53.82-1.85.78-3.56.66-5.72-.29-9.01-3.96-18.15-7.68-27.24-11.49-8.9-3.73-17.85-7.4-26.71-11.22-9.83-4.24-10.74-12.35-1.95-18.03ZM297.2,276.21c-17.86,11.31-35.95,22.35-53.55,33.98-10.18,6.72-20.44,13.31-31.77,20.48-.78-10.84-1.7-20.85-2.13-30.89-.14-3.34-1.06-5.29-4.67-6.63-6.8-2.52-13.44-5.41-20.03-8.34-8.32-3.71-9.16-11.68-1.7-16.79,5.52-3.78,11.35-7.19,16.96-10.86,2.09-1.37,3.94-1.43,6.19-.35,3.05,1.47,6.26,2.68,10.53,4.47-7.61,4.81-14.57,9.22-22.39,14.16,8.48,3.55,15.94,6.82,23.55,9.81,2.81,1.1,4.05,2.58,4.12,5.33.14,5.81,1.52,11.54.88,17.63,21.13-13.39,41.69-26.43,63.05-39.97-6.86-2.88-13-5.45-20.07-8.42,4.3-2.75,7.71-4.97,11.19-7.11.62-.38,1.67-.8,2.2-.58,7.02,2.91,14.85,4.68,20.6,9.47,4.84,4.03,3.13,10.77-2.95,14.62ZM297.4,228.46c-16.62,10.72-33.4,21.23-50.03,31.93-2.49,1.6-4.51,1.74-7.25.53-9.01-3.96-18.15-7.68-27.24-11.49-8.9-3.73-17.85-7.4-26.71-11.22-9.83-4.24-10.74-12.35-1.95-18.03,9.93-6.42,19.92-12.77,29.93-19.09,1.94.81,3.88,1.62,5.82,2.43,2.68,1.11,5.4,2.25,8.12,3.4-9.58,6.19-19.25,12.27-28.85,18.44-1.41.9-3.45,1.36-3.73,3.49,11.68,4.9,23.72,9.23,34.94,14.88,8.8,4.43,15.36,4.21,23.3-1.81,10.05-7.63,21.36-13.91,32.91-21.27-10.14-4.25-19.83-8.24-29.34-12.27,4.23-2.71,8.45-5.41,12.67-8.09,8.56,3.58,17.13,7.17,25.67,10.79,9.05,3.85,9.93,12.11,1.75,17.39Z"/>
          <path class="cls-3" d="M247.88,190.84c1.9-.8,3.83-1.96,5.85-3.49,10.05-7.63,21.36-13.91,32.91-21.27-14.45-6.06-28.01-11.57-41.37-17.44-3.82-1.68-7.07-1.78-10.35-.4-.9.38-1.8.87-2.72,1.47-10.92,7.12-22.01,14.03-32.98,21.09-1.41.9-3.45,1.36-3.73,3.49,11.68,4.9,23.72,9.23,34.94,14.88,6.56,3.3,11.88,4.02,17.44,1.68Z"/>
        </g>
        <g>
          <path class="cls-1" d="M534.42,291.1c-3.52-3.15-6.62-6.78-9.23-10.79-4.87-7.5-7.64-15.85-8.26-24.88-6.62-.31-12.79-.61-21.48-.96-7.31-.3-11.11-9.35-6.14-14.53,18.69-19.48,27.9-28.56,47.21-46.33,1.48-1.37,2.32-3.27,2.33-5.32.03-7.92.04-11.88.07-19.79.01-4.49-3.87-8.6-8.64-9.21-42.07-5.42-61.4-6.46-102.02-13.35-4.61-.78-8.35,2.55-8.35,7.53v20.62c0,4.99,3.74,9.57,8.35,10.16,13.11,1.69,19.65,2.32,32.75,3.54,7.31.68,11.1,9.98,6.11,15.1-17.97,18.45-26.96,27.88-44.96,47.45-1.45,1.58-2.26,3.73-2.26,6.03v24.31c0,4.98,3.74,10.42,8.36,10.42h106.15Z"/>
          <path class="cls-1" d="M856.55,253.15c14.91-.57,22.36-.86,37.27-1.65,4.62-.24,8.36,3.58,8.36,8.56v20.63c0,4.98-3.74,10.35-8.36,10.42-41.8.08-62.72.08-104.51,0-4.62.07-8.28-3.53-8.26-8.04.05-8.78.08-13.18.12-21.96.01-2.07.8-4.09,2.18-5.67,17.16-19.59,26.93-29.98,44.94-50.86,5.01-5.8,1.22-14.42-6.09-13.78-13.12,1.14-19.68,1.73-32.8,3.25-4.62.53-7.83-2.75-7.8-7.25.04-7.45.06-11.18.11-18.63.03-4.5,3.11-8.64,7.73-9.34,40.71-6.19,61-6.36,101.65-12.57,4.62-.7,8.35,2.69,8.35,7.66v21.9c0,2.27-.8,4.57-2.24,6.42-18.7,23.95-28.05,34.97-46.77,56.64-4.98,5.76-1.19,14.57,6.12,14.28Z"/>
          <path class="cls-1" d="M773.22,222.15c.26-18.35-3.92-31.75-12.48-39.73-8.52-7.95-21.86-10.98-40.74-9.91-8.62.48-18.41,2.25-29.13,5.15-10.73,2.9-20.04,6.31-27.5,10.26-1.26.66-1.89.99-3.15,1.66,5.03,13.1,7.51,19.62,12.43,32.67,1.73-.84,2.6-1.26,4.33-2.1,6.1-2.99,12.68-5.53,19.5-7.58,6.7-2.01,12.55-3.14,17.42-3.32,7.43-.28,10.19,1.01,11.19,1.81,1.42,1.14,2.16,3.58,2.16,7.11-.85.03-1.28.05-2.14.09-15.99.66-29.31,2.02-39.24,4.27-10.5,2.37-18.52,6.14-23.74,11.34-5.34,5.29-8.23,12.35-8.6,21.01-.32,7.42,1.51,14.21,5.42,20.15,3.87,5.89,9.39,10.53,16.39,13.81,6.9,3.24,14.8,4.87,23.49,4.84,8.03-.03,15.15-1.77,21.15-5.22,1.77-1.02,3.4-2.15,4.89-3.4-.12,2.69-.17,3.35-.29,6.04,19.13-.13,48.64,0,48.64,0,0,0-.4-41.27,0-68.95ZM720.86,255.02c-2.93,3-6.53,4.49-10.99,4.57-2.5.04-4.34-.6-5.77-2.03-1.47-1.46-2.1-3.25-1.98-5.64.08-1.76.64-3.57,4.07-4.98,2.58-1.05,8.07-2.34,19.42-2.71-.41,4.38-1.96,7.93-4.75,10.79Z"/>
          <path class="cls-1" d="M640.13,186.56c-9.58-8.7-24.82-13.47-45.22-14.75-9.32-.59-19.69-.01-30.74,1.74-9.87,1.57-18.36,3.78-25.29,6.66-.01,2.4-.01,4.92-.03,8.07-.01,1.67-.56,3.24-1.57,4.5,3.33,8.57,5.91,15.18,9.99,25.58,1.72-.75,2.58-1.13,4.31-1.88,6.09-2.65,12.73-4.75,19.72-6.27,6.88-1.49,12.97-2.12,18.11-1.86,7.82.38,10.82,1.92,11.9,2.82,1.53,1.26,2.37,3.77,2.44,7.3-.91-.04-1.36-.05-2.27-.09-16.93-.63-30.65-.31-40.73,1.27-10.66,1.66-18.59,5.06-23.61,10.22-5.13,5.26-7.72,12.64-7.73,21.83-.01,7.9,2.1,15.2,6.26,21.59,4.12,6.35,9.85,11.34,17,14.87,7.05,3.47,15.04,5.23,23.77,5.29,8.08.06,15.19-1.65,21.18-5.01,1.77-.99,3.4-2.09,4.89-3.31-.07,2.68-.11,3.29-.18,5.97,19.31.11,28.96-.01,48.23,0,.09-2.24.19-3.48.27-5.55-1.15-1.38-2.29-2.77-3.28-4.28-5.18-7.85-7.64-16.76-7.25-26.47.45-11.55,4.49-21.15,12.02-28.56.34-.34.72-.65,1.07-.97.6-17.14-3.78-30.09-13.26-38.71ZM598.35,254.99c-2.96,2.87-6.63,4.23-11.2,4.12-2.56-.06-4.45-.8-5.96-2.31-1.55-1.55-2.25-3.41-2.21-5.84.03-1.79.54-3.62,4.03-4.86,2.61-.94,8.22-1.93,20.06-1.66-.35,4.35-1.9,7.82-4.72,10.55Z"/>
        </g>
      </g>
    </g>
  </g>
</svg>